<svg preserveAspectRatio="none" width="100%" height="100%" overflow="visible" style="display: block;" viewBox="0 0 11.6667 11.6667" fill="none" xmlns="http://www.w3.org/2000/svg">
<path id="Vector" d="M5.83333 2.33333C5.67862 2.33333 5.53025 2.39479 5.42085 2.50419C5.31146 2.61358 5.25 2.76196 5.25 2.91667V8.75C5.25 8.90471 5.31146 9.05308 5.42085 9.16248C5.53025 9.27188 5.67862 9.33333 5.83333 9.33333C5.98804 9.33333 6.13642 9.27188 6.24581 9.16248C6.35521 9.05308 6.41667 8.90471 6.41667 8.75V2.91667C6.41667 2.76196 6.35521 2.61358 6.24581 2.50419C6.13642 2.39479 5.98804 2.33333 5.83333 2.33333ZM2.91667 5.83333C2.76196 5.83333 2.61358 5.89479 2.50419 6.00419C2.39479 6.11358 2.33333 6.26196 2.33333 6.41667V8.75C2.33333 8.90471 2.39479 9.05308 2.50419 9.16248C2.61358 9.27188 2.76196 9.33333 2.91667 9.33333C3.07138 9.33333 3.21975 9.27188 3.32915 9.16248C3.43854 9.05308 3.5 8.90471 3.5 8.75V6.41667C3.5 6.26196 3.43854 6.11358 3.32915 6.00419C3.21975 5.89479 3.07138 5.83333 2.91667 5.83333ZM8.75 4.66667C8.59529 4.66667 8.44692 4.72813 8.33752 4.83752C8.22812 4.94692 8.16667 5.09529 8.16667 5.25V8.75C8.16667 8.90471 8.22812 9.05308 8.33752 9.16248C8.44692 9.27188 8.59529 9.33333 8.75 9.33333C8.90471 9.33333 9.05308 9.27188 9.16248 9.16248C9.27188 9.05308 9.33333 8.90471 9.33333 8.75V5.25C9.33333 5.09529 9.27188 4.94692 9.16248 4.83752C9.05308 4.72813 8.90471 4.66667 8.75 4.66667ZM9.91667 0H1.75C1.28587 0 0.840752 0.184375 0.512563 0.512563C0.184375 0.840752 0 1.28587 0 1.75V9.91667C0 10.3808 0.184375 10.8259 0.512563 11.1541C0.840752 11.4823 1.28587 11.6667 1.75 11.6667H9.91667C10.3808 11.6667 10.8259 11.4823 11.1541 11.1541C11.4823 10.8259 11.6667 10.3808 11.6667 9.91667V1.75C11.6667 1.28587 11.4823 0.840752 11.1541 0.512563C10.8259 0.184375 10.3808 0 9.91667 0ZM10.5 9.91667C10.5 10.0714 10.4385 10.2198 10.3291 10.3291C10.2198 10.4385 10.0714 10.5 9.91667 10.5H1.75C1.59529 10.5 1.44692 10.4385 1.33752 10.3291C1.22813 10.2198 1.16667 10.0714 1.16667 9.91667V1.75C1.16667 1.59529 1.22813 1.44692 1.33752 1.33752C1.44692 1.22813 1.59529 1.16667 1.75 1.16667H9.91667C10.0714 1.16667 10.2198 1.22813 10.3291 1.33752C10.4385 1.44692 10.5 1.59529 10.5 1.75V9.91667Z" fill="var(--fill-0, #EEEEEE)"/>
</svg>
