<svg preserveAspectRatio="none" width="100%" height="100%" overflow="visible" style="display: block;" viewBox="0 0 29.3333 26.6667" fill="none" xmlns="http://www.w3.org/2000/svg">
<path id="Vector" d="M13.0867 4.12533C12.3996 4.17457 11.7102 4.06962 11.0689 3.81817C10.4275 3.56672 9.85052 3.17512 9.38 2.672L9.268 2.67067C8.79734 3.17397 8.2201 3.56568 7.57854 3.81713C6.93697 4.06859 6.24731 4.17344 5.56 4.124C5.45541 4.82004 5.19371 5.48312 4.79475 6.06298C4.39578 6.64283 3.87002 7.12423 3.25733 7.47067C3.51544 8.05773 3.64872 8.69203 3.64872 9.33333C3.64872 9.97463 3.51544 10.6089 3.25733 11.196C3.87002 11.5424 4.39578 12.0238 4.79475 12.6037C5.19371 13.1835 5.45541 13.8466 5.56 14.5427C6.24709 14.4934 6.9365 14.5984 7.57782 14.8498C8.21913 15.1013 8.79615 15.4929 9.26667 15.996H9.37867C9.84919 15.4929 10.4262 15.1013 11.0675 14.8498C11.7088 14.5984 12.3982 14.4934 13.0853 14.5427C13.1899 13.8466 13.4516 13.1835 13.8506 12.6037C14.2496 12.0238 14.7753 11.5424 15.388 11.196C15.1299 10.6089 14.9966 9.97463 14.9966 9.33333C14.9966 8.69203 15.1299 8.05773 15.388 7.47067C14.7756 7.12408 14.2501 6.64261 13.8513 6.06277C13.4526 5.48292 13.1911 4.81991 13.0867 4.124V4.12533ZM18.6667 7.61867C18.3619 7.78938 18.1081 8.03824 17.9315 8.33962C17.7549 8.641 17.6618 8.98401 17.6618 9.33333C17.6618 9.68266 17.7549 10.0257 17.9315 10.327C18.1081 10.6284 18.3619 10.8773 18.6667 11.048L17.9973 13.2933C17.6356 13.2308 17.2636 13.2709 16.9236 13.4091C16.5835 13.5473 16.289 13.778 16.0734 14.0751C15.8578 14.3722 15.7297 14.7238 15.7038 15.0899C15.6779 15.4561 15.7551 15.8222 15.9267 16.1467L14.0027 17.6427C13.7478 17.4339 13.4446 17.2925 13.1208 17.2316C12.797 17.1708 12.4632 17.1923 12.1499 17.2943C11.8366 17.3963 11.5541 17.5754 11.3282 17.8153C11.1023 18.0551 10.9404 18.3479 10.8573 18.6667L7.78533 18.6587C7.70108 18.3418 7.53884 18.0511 7.31342 17.813C7.08799 17.5749 6.80655 17.3971 6.49477 17.2957C6.18298 17.1943 5.85077 17.1725 5.52843 17.2324C5.20608 17.2924 4.90386 17.432 4.64933 17.6387L2.72667 16.1307C2.89365 15.8074 2.96757 15.4442 2.94019 15.0814C2.9128 14.7186 2.78519 14.3706 2.57157 14.0761C2.35795 13.7816 2.06673 13.5522 1.73038 13.4135C1.39403 13.2748 1.02577 13.2323 0.666667 13.2907L0 11.0373C0.299381 10.865 0.548057 10.6168 0.720972 10.3178C0.893886 10.0188 0.98493 9.67943 0.98493 9.334C0.98493 8.98857 0.893886 8.64924 0.720972 8.3502C0.548057 8.05116 0.299381 7.80298 0 7.63067L0.666667 5.37733C1.02577 5.4357 1.39403 5.39318 1.73038 5.2545C2.06673 5.11582 2.35795 4.88645 2.57157 4.59194C2.78519 4.29744 2.9128 3.9494 2.94019 3.58661C2.96757 3.22383 2.89365 2.86056 2.72667 2.53733L4.64933 1.02667C4.90387 1.23364 5.20619 1.37355 5.52871 1.43363C5.85122 1.49371 6.18365 1.47204 6.49563 1.37061C6.80762 1.26918 7.08923 1.09121 7.31475 0.852956C7.54026 0.614701 7.70251 0.32375 7.78667 0.00666667L10.8573 0C10.9405 0.318571 11.1024 0.611124 11.3282 0.850762C11.554 1.0904 11.8364 1.26943 12.1494 1.37139C12.4625 1.47336 12.7962 1.49498 13.1198 1.43428C13.4434 1.37357 13.7465 1.23249 14.0013 1.024L15.9267 2.52C15.7551 2.8445 15.6779 3.2106 15.7038 3.57675C15.7297 3.9429 15.8578 4.29446 16.0734 4.59155C16.289 4.88863 16.5835 5.11935 16.9236 5.25754C17.2636 5.39572 17.6356 5.43584 17.9973 5.37333L18.6667 7.61867ZM10.9173 19.8827C12.0023 19.7219 13.0558 19.3935 14.04 18.9093C14.0045 19.0062 13.9659 19.1018 13.924 19.196C14.5367 19.5424 15.0624 20.0238 15.4614 20.6037C15.8604 21.1835 16.1221 21.8466 16.2267 22.5427C16.9138 22.4934 17.6032 22.5984 18.2445 22.8498C18.8858 23.1013 19.4628 23.4929 19.9333 23.996H20.0453C20.5159 23.4929 21.0929 23.1013 21.7342 22.8498C22.3755 22.5984 23.0649 22.4934 23.752 22.5427C23.8566 21.8466 24.1183 21.1835 24.5173 20.6037C24.9162 20.0238 25.442 19.5424 26.0547 19.196C25.7966 18.6089 25.6633 17.9746 25.6633 17.3333C25.6633 16.692 25.7966 16.0577 26.0547 15.4707C25.4422 15.1241 24.9167 14.6426 24.518 14.0628C24.1193 13.4829 23.8578 12.8199 23.7533 12.124C23.0662 12.1732 22.3768 12.0683 21.7355 11.8168C21.0942 11.5654 20.5172 11.1738 20.0467 10.6707H19.9347L19.9147 10.692C20.0278 9.79963 20.0287 8.89659 19.9173 8.004L21.5253 8C21.6085 8.31857 21.7704 8.61112 21.9962 8.85076C22.222 9.0904 22.5044 9.26943 22.8174 9.37139C23.1305 9.47336 23.4642 9.49498 23.7878 9.43428C24.1114 9.37357 24.4145 9.23249 24.6693 9.024L26.5947 10.52C26.4231 10.8445 26.3459 11.2106 26.3718 11.5767C26.3977 11.9429 26.5258 12.2945 26.7414 12.5915C26.957 12.8886 27.2515 13.1194 27.5916 13.2575C27.9316 13.3957 28.3036 13.4358 28.6653 13.3733L29.3333 15.6187C29.0286 15.7894 28.7748 16.0382 28.5982 16.3396C28.4216 16.641 28.3284 16.984 28.3284 17.3333C28.3284 17.6827 28.4216 18.0257 28.5982 18.327C28.7748 18.6284 29.0286 18.8773 29.3333 19.048L28.664 21.2933C28.3023 21.2308 27.9303 21.2709 27.5902 21.4091C27.2502 21.5473 26.9556 21.778 26.74 22.0751C26.5244 22.3722 26.3964 22.7238 26.3705 23.0899C26.3446 23.4561 26.4218 23.8222 26.5933 24.1467L24.6693 25.6427C24.4145 25.4339 24.1113 25.2925 23.7875 25.2316C23.4637 25.1708 23.1298 25.1923 22.8166 25.2943C22.5033 25.3963 22.2207 25.5754 21.9949 25.8153C21.769 26.0551 21.6071 26.3479 21.524 26.6667L18.452 26.6587C18.3677 26.3418 18.2055 26.0511 17.9801 25.813C17.7547 25.5749 17.4732 25.3971 17.1614 25.2957C16.8496 25.1943 16.5174 25.1725 16.1951 25.2324C15.8727 25.2924 15.5705 25.432 15.316 25.6387L13.3933 24.1307C13.5603 23.8074 13.6342 23.4442 13.6069 23.0814C13.5795 22.7186 13.4519 22.3706 13.2382 22.0761C13.0246 21.7816 12.7334 21.5522 12.397 21.4135C12.0607 21.2748 11.6924 21.2323 11.3333 21.2907L10.9173 19.8827V19.8827ZM9.33333 13.3333C8.80805 13.3333 8.2879 13.2299 7.8026 13.0289C7.3173 12.8278 6.87634 12.5332 6.50491 12.1618C6.13347 11.7903 5.83883 11.3494 5.63782 10.8641C5.4368 10.3788 5.33333 9.85862 5.33333 9.33333C5.33333 8.80805 5.4368 8.2879 5.63782 7.8026C5.83883 7.3173 6.13347 6.87634 6.50491 6.50491C6.87634 6.13347 7.3173 5.83883 7.8026 5.63782C8.2879 5.4368 8.80805 5.33333 9.33333 5.33333C10.3942 5.33333 11.4116 5.75476 12.1618 6.50491C12.9119 7.25505 13.3333 8.27247 13.3333 9.33333C13.3333 10.3942 12.9119 11.4116 12.1618 12.1618C11.4116 12.9119 10.3942 13.3333 9.33333 13.3333V13.3333ZM9.33333 10.6667C9.68696 10.6667 10.0261 10.5262 10.2761 10.2761C10.5262 10.0261 10.6667 9.68695 10.6667 9.33333C10.6667 8.97971 10.5262 8.64057 10.2761 8.39052C10.0261 8.14048 9.68696 8 9.33333 8C8.97971 8 8.64057 8.14048 8.39052 8.39052C8.14048 8.64057 8 8.97971 8 9.33333C8 9.68695 8.14048 10.0261 8.39052 10.2761C8.64057 10.5262 8.97971 10.6667 9.33333 10.6667ZM20 21.3333C18.9391 21.3333 17.9217 20.9119 17.1716 20.1618C16.4214 19.4116 16 18.3942 16 17.3333C16 16.2725 16.4214 15.2551 17.1716 14.5049C17.9217 13.7548 18.9391 13.3333 20 13.3333C21.0609 13.3333 22.0783 13.7548 22.8284 14.5049C23.5786 15.2551 24 16.2725 24 17.3333C24 18.3942 23.5786 19.4116 22.8284 20.1618C22.0783 20.9119 21.0609 21.3333 20 21.3333V21.3333ZM20 18.6667C20.3536 18.6667 20.6928 18.5262 20.9428 18.2761C21.1929 18.0261 21.3333 17.687 21.3333 17.3333C21.3333 16.9797 21.1929 16.6406 20.9428 16.3905C20.6928 16.1405 20.3536 16 20 16C19.6464 16 19.3072 16.1405 19.0572 16.3905C18.8071 16.6406 18.6667 16.9797 18.6667 17.3333C18.6667 17.687 18.8071 18.0261 19.0572 18.2761C19.3072 18.5262 19.6464 18.6667 20 18.6667V18.6667Z" fill="var(--fill-0, #EEEEEE)"/>
</svg>
