<svg width="32" height="32" viewBox="0 0 32 32" fill="none" xmlns="http://www.w3.org/2000/svg">
  <g fill="#EEEEEE">
    <path d="M20.8 5.4C21.8 4.4 23.4 4.4 24.4 5.4L26.6 7.6C27.6 8.6 27.6 10.2 26.6 11.2L16.2 21.6C15.9 21.9 15.5 22.1 15 22.2L10.7 23.1C10 23.2 9.3 22.6 9.5 21.8L10.4 17.5C10.5 17 10.7 16.6 11 16.3L20.8 6.5V5.4Z"/>
    <path d="M8.1 25.2C7.5 25.2 7 25.7 7 26.3C7 26.9 7.5 27.4 8.1 27.4H16.8C17.4 27.4 17.9 26.9 17.9 26.3C17.9 25.7 17.4 25.2 16.8 25.2H8.1Z"/>
    <path d="M19.4 7.9L24.1 12.6" opacity="0.32"/>
  </g>
</svg>