<svg preserveAspectRatio="none" width="100%" height="100%" overflow="visible" style="display: block;" viewBox="0 0 27.2508 26.3035" fill="none" xmlns="http://www.w3.org/2000/svg">
<path id="Vector" d="M14.6987 20.1608L14.7293 20.1248L8.57333 15.0155L8.57067 15.0195L14.6987 20.1608ZM12.984 22.2048L9.544 26.3035L0 25.2328L6.856 17.0621L12.984 22.2048V22.2048ZM8.89867 18.7755L5.83467 16.2061L17.832 1.9048C18.7413 0.821301 20.0439 0.143414 21.453 0.0202653C22.8621 -0.102884 24.2625 0.338793 25.346 1.24813C26.4295 2.15747 27.1074 3.45998 27.2305 4.86913C27.3537 6.27828 26.912 7.67864 26.0027 8.76213L14.0053 23.0595L10.9413 20.4888L8.37067 23.5528L5.47067 22.8595L8.89867 18.7741V18.7755ZM9.592 15.8768L13.6773 19.3035L23.9613 7.04747C24.4069 6.50466 24.6204 5.80801 24.5554 5.10876C24.4904 4.40952 24.1522 3.76413 23.6143 3.31272C23.0763 2.86132 22.382 2.64034 21.6821 2.69777C20.9822 2.7552 20.3332 3.08641 19.876 3.61947L9.592 15.8768V15.8768ZM21.9187 5.33413C22.1892 5.56146 22.3584 5.88686 22.3891 6.23886C22.4199 6.59087 22.3097 6.94068 22.0827 7.21147L21.2267 8.2328C20.9995 8.50385 20.6739 8.67354 20.3216 8.70455C19.9693 8.73556 19.6191 8.62533 19.348 8.39813C19.077 8.17093 18.9073 7.84536 18.8762 7.49304C18.8452 7.14072 18.9555 6.79052 19.1827 6.51947L20.04 5.49813C20.1526 5.3638 20.2906 5.25299 20.446 5.17203C20.6015 5.09107 20.7714 5.04156 20.946 5.02633C21.1206 5.01109 21.2965 5.03044 21.4636 5.08326C21.6308 5.13607 21.7858 5.22132 21.92 5.33413H21.9187Z" fill="var(--fill-0, #EEEEEE)"/>
</svg>
