<svg preserveAspectRatio="none" width="100%" height="100%" overflow="visible" style="display: block;" viewBox="0 0 14 14" fill="none" xmlns="http://www.w3.org/2000/svg">
<path id="Vector" fill-rule="evenodd" clip-rule="evenodd" d="M0 0H0.875V13.125H14V14H0V0ZM12.9649 2.72387C13.0094 2.76028 13.0463 2.8051 13.0734 2.85577C13.1006 2.90644 13.1175 2.96197 13.1232 3.01918C13.1289 3.07639 13.1232 3.13416 13.1066 3.18919C13.0899 3.24421 13.0626 3.29542 13.0261 3.33987L9.08863 8.15238C9.04992 8.19961 9.00176 8.23822 8.94724 8.26573C8.89272 8.29323 8.83304 8.30901 8.77205 8.31206C8.71106 8.31511 8.65011 8.30536 8.59311 8.28343C8.53612 8.26151 8.48435 8.22789 8.44113 8.18475L6.1775 5.92113L2.9785 10.3197C2.90852 10.4087 2.80677 10.4671 2.69464 10.4827C2.5825 10.4982 2.46871 10.4697 2.37718 10.403C2.28564 10.3364 2.22349 10.2369 2.20378 10.1255C2.18408 10.014 2.20835 9.89921 2.2715 9.80525L5.7715 4.99275C5.80865 4.94157 5.85645 4.89906 5.91161 4.86814C5.96677 4.83722 6.02798 4.81862 6.09102 4.81363C6.15406 4.80864 6.21744 4.81737 6.27678 4.83923C6.33612 4.86109 6.39001 4.89556 6.43475 4.94025L8.71763 7.224L12.3489 2.78513C12.3853 2.74063 12.4301 2.70375 12.4808 2.67659C12.5314 2.64943 12.587 2.63252 12.6442 2.62683C12.7014 2.62114 12.7592 2.62678 12.8142 2.64344C12.8692 2.66009 12.9204 2.68742 12.9649 2.72387V2.72387Z" fill="var(--fill-0, #EEEEEE)"/>
</svg>
