<svg preserveAspectRatio="none" width="100%" height="100%" overflow="visible" style="display: block;" viewBox="0 0 18.6667 18.6667" fill="none" xmlns="http://www.w3.org/2000/svg">
<path id="Vector" d="M10.6667 8.85467L12.1613 7.36133C12.4126 7.11827 12.7493 6.98364 13.0989 6.98642C13.4485 6.98921 13.7831 7.1292 14.0304 7.37624C14.2778 7.62328 14.4183 7.9576 14.4216 8.3072C14.4249 8.65679 14.2907 8.99369 14.048 9.24533L10.276 13.0173C10.1525 13.1416 10.0056 13.2402 9.8438 13.3075C9.68203 13.3747 9.50854 13.4094 9.33333 13.4094C9.15812 13.4094 8.98464 13.3747 8.82286 13.3075C8.66108 13.2402 8.5142 13.1416 8.39067 13.0173L4.61867 9.24533C4.49487 9.12136 4.39671 8.97423 4.32978 8.81232C4.26285 8.65042 4.22847 8.47692 4.22859 8.30172C4.22872 8.12653 4.26334 7.95308 4.3305 7.79127C4.39766 7.62946 4.49603 7.48246 4.62 7.35867C4.74397 7.23487 4.8911 7.13671 5.05301 7.06978C5.21491 7.00285 5.38842 6.96847 5.56361 6.96859C5.7388 6.96872 5.91226 7.00334 6.07407 7.0705C6.23588 7.13766 6.38287 7.23603 6.50667 7.36L8 8.85467V1.33333C8 0.979711 8.14048 0.640573 8.39052 0.390524C8.64057 0.140476 8.97971 0 9.33333 0C9.68695 0 10.0261 0.140476 10.2761 0.390524C10.5262 0.640573 10.6667 0.979711 10.6667 1.33333V8.85467ZM1.33333 16H17.3333C17.687 16 18.0261 16.1405 18.2761 16.3905C18.5262 16.6406 18.6667 16.9797 18.6667 17.3333C18.6667 17.687 18.5262 18.0261 18.2761 18.2761C18.0261 18.5262 17.687 18.6667 17.3333 18.6667H1.33333C0.979711 18.6667 0.640573 18.5262 0.390524 18.2761C0.140476 18.0261 0 17.687 0 17.3333C0 16.9797 0.140476 16.6406 0.390524 16.3905C0.640573 16.1405 0.979711 16 1.33333 16V16Z" fill="var(--fill-0, #EEEEEE)"/>
</svg>
