<svg preserveAspectRatio="none" width="100%" height="100%" overflow="visible" style="display: block;" viewBox="0 0 26.9351 25.1106" fill="none" xmlns="http://www.w3.org/2000/svg">
<path id="Vector" d="M23.7661 5.58847L24.3261 3.75247C24.3774 3.585 24.4611 3.42924 24.5725 3.29411C24.6839 3.15898 24.8208 3.04712 24.9754 2.96491C25.1301 2.8827 25.2994 2.83175 25.4737 2.81497C25.6481 2.7982 25.824 2.81593 25.9915 2.86714C26.159 2.91836 26.3147 3.00206 26.4498 3.11347C26.585 3.22488 26.6968 3.36181 26.779 3.51645C26.8613 3.67109 26.9122 3.84041 26.929 4.01474C26.9457 4.18907 26.928 4.365 26.8768 4.53247L25.3168 9.63248C25.2134 9.97046 24.9801 10.2536 24.6681 10.4196C24.356 10.5856 23.9909 10.6209 23.6528 10.5178L18.5528 8.95781C18.3818 8.90968 18.2222 8.82787 18.0833 8.71719C17.9443 8.60651 17.8289 8.46919 17.7438 8.31329C17.6587 8.15739 17.6056 7.98605 17.5876 7.80934C17.5696 7.63263 17.5871 7.4541 17.6391 7.28425C17.6911 7.1144 17.7764 6.95664 17.8902 6.82025C18.004 6.68385 18.1439 6.57156 18.3017 6.48998C18.4594 6.4084 18.6319 6.35916 18.809 6.34516C18.9861 6.33117 19.1642 6.35269 19.3328 6.40847L21.5621 7.08981C20.5766 5.595 19.2019 4.39738 17.5862 3.62592C15.9705 2.85446 14.1749 2.5384 12.3929 2.71177C10.6108 2.88515 8.90986 3.54139 7.47314 4.60983C6.03642 5.67826 4.91839 7.1184 4.23947 8.77514L3.89281 9.61914C3.82976 9.78575 3.73396 9.93803 3.61108 10.067C3.4882 10.196 3.34072 10.299 3.17735 10.37C3.01399 10.441 2.83805 10.4786 2.65992 10.4805C2.48179 10.4824 2.30509 10.4486 2.14026 10.381C1.97542 10.3135 1.82579 10.2136 1.7002 10.0873C1.57461 9.96094 1.47561 9.81072 1.40904 9.64549C1.34247 9.48026 1.30969 9.30336 1.31262 9.12525C1.31556 8.94714 1.35416 8.77142 1.42614 8.60847L1.77281 7.76448C2.63445 5.66218 4.05243 3.83428 5.87451 2.47703C7.69659 1.11979 9.85394 0.284479 12.1149 0.0607797C14.3759 -0.16292 16.6551 0.233446 18.7078 1.20732C20.7605 2.18119 22.5092 3.69578 23.7661 5.58847V5.58847ZM3.07014 19.7391L2.63414 21.4871C2.59513 21.6605 2.52186 21.8243 2.41864 21.969C2.31542 22.1136 2.18433 22.2361 2.03307 22.3294C1.88181 22.4226 1.71344 22.4847 1.53785 22.512C1.36226 22.5392 1.18299 22.5311 1.01058 22.4881C0.838171 22.4451 0.676099 22.3681 0.533888 22.2615C0.391678 22.155 0.272198 22.0211 0.182471 21.8677C0.0927441 21.7143 0.0345798 21.5446 0.0113966 21.3684C-0.0117867 21.1922 0.000478879 21.0132 0.0474723 20.8418L1.33681 15.6685C1.38031 15.4923 1.4593 15.3269 1.56894 15.1824C1.67859 15.0378 1.81658 14.9172 1.97448 14.8278C2.13237 14.7384 2.30685 14.6822 2.48722 14.6626C2.66759 14.643 2.85007 14.6604 3.02347 14.7138L8.12747 15.9858C8.47066 16.0714 8.7658 16.2898 8.94796 16.593C9.13012 16.8962 9.18438 17.2593 9.09881 17.6025C9.01323 17.9457 8.79483 18.2408 8.49164 18.423C8.18846 18.6051 7.82533 18.6594 7.48214 18.5738L5.10081 17.9805C6.11883 19.5389 7.55782 20.7768 9.25086 21.5506C10.9439 22.3244 12.8216 22.6024 14.6662 22.3523C16.5109 22.1021 18.2468 21.3342 19.6726 20.1375C21.0985 18.9408 22.1559 17.3644 22.7221 15.5911C22.8296 15.2541 23.0666 14.9736 23.3809 14.8114C23.5366 14.731 23.7065 14.6821 23.881 14.6674C24.0556 14.6527 24.2313 14.6726 24.3981 14.7258C24.565 14.779 24.7198 14.8646 24.8535 14.9776C24.9873 15.0907 25.0976 15.229 25.1779 15.3846C25.2583 15.5402 25.3072 15.7102 25.3219 15.8847C25.3365 16.0592 25.3167 16.2349 25.2635 16.4018C24.7084 18.1431 23.7785 19.7416 22.5392 21.0848C21.2998 22.428 19.7812 23.4833 18.0901 24.1765C15.4552 25.2559 12.531 25.4045 9.80021 24.5978C7.06944 23.7911 4.69543 22.0772 3.07014 19.7391V19.7391Z" fill="var(--fill-0, #EEEEEE)"/>
</svg>
